Coordinates
version=1
nRows=19
nColumns=36
inDegrees=yes

Units are S.I. units (second, meters, Newtons, ...)
If the header above contains a line with 'inDegrees', this indicates whether rotational values are in degrees (yes) or radians (no).

endheader
time	pelvis_tilt	pelvis_list	pelvis_rotation	pelvis_tx	pelvis_ty	pelvis_tz	hip_flexion_r	hip_adduction_r	hip_rotation_r	knee_angle_r	knee_angle_r_beta	ankle_angle_r	subtalar_angle_r	mtp_angle_r	hip_flexion_l	hip_adduction_l	hip_rotation_l	knee_angle_l	knee_angle_l_beta	ankle_angle_l	subtalar_angle_l	mtp_angle_l	lumbar_extension	lumbar_bending	lumbar_rotation	arm_flex_r	arm_add_r	arm_rot_r	elbow_flex_r	pro_sup_r	arm_flex_l	arm_add_l	arm_rot_l	elbow_flex_l	pro_sup_l
      7.20000000	     -4.62151059	      0.33883231	      0.96643961	      0.40458236	      0.93317011	      0.00411095	      1.33639806	     -7.00614921	     -1.78444313	      1.07911156	      0.01883405	      3.24222854	     -5.09495573	     -7.49999987	      1.91036727	     -4.42768427	     -0.04851437	      1.40128350	      0.02445701	     -0.23719443	     -6.75314561	     -7.49999987	      7.72683130	     -2.38992096	      2.93828384	    100.13450269	    -46.18164966	      8.64826376	     43.99285935	     73.85406187	    110.69700209	    -29.27377787	     42.43445780	     33.01227314	     68.63955486
      7.21666670	     -4.57494749	      0.33124457	      0.92554576	      0.40437448	      0.93321591	      0.00467470	      1.33297855	     -6.96687034	     -1.75933539	      1.12106964	      0.01956636	      3.33260960	     -4.99571659	     -7.49999987	      1.89777605	     -4.46338987	     -0.20779326	      1.43093179	      0.02497447	     -0.11118255	     -6.42593110	     -7.49999987	      7.96262370	     -2.43497112	      3.12686878	     96.10854182	    -45.79245729	      3.10212457	     45.37474393	     78.07471690	    107.99084694	    -29.39768762	     39.65510829	     33.08518448	     69.88816041
      7.23333330	     -4.49745270	      0.34253930	      0.92639979	      0.40446545	      0.93349846	      0.00409236	      1.25804834	     -6.96322444	     -1.64022616	      1.15384109	      0.02013833	      3.28292826	     -5.13664523	     -7.49999987	      1.84536529	     -4.46637894	     -0.16129685	      1.45650728	      0.02542085	     -0.15399176	     -6.49390440	     -7.49999987	      8.19521765	     -2.40054799	      3.53088171	     92.17412753	    -45.58961786	     -1.70131410	     47.71120520	     79.68890094	    104.37135104	    -29.46104422	     35.28057078	     34.75607825	     71.75514493
      7.25000000	     -4.44577301	      0.34075229	      0.89665220	      0.40412290	      0.93332448	      0.00465449	      1.23365595	     -6.94486896	     -1.60643214	      1.21004025	      0.02111919	      3.22280620	     -5.16095597	     -7.49999987	      1.80521399	     -4.47071624	     -0.11141204	      1.45636628	      0.02541839	     -0.08405515	     -6.37743131	     -7.49999987	      8.27285697	     -2.25623515	      3.94886974	     88.67745852	    -45.37531760	     -6.08774032	     49.74148763	     81.35506310	    101.08924007	    -29.65863386	     31.63070514	     36.30633944	     73.23299787
      7.26666670	     -4.30621876	      0.33748956	      0.90420087	      0.40421186	      0.93355559	      0.00411640	      1.09401540	     -6.94004899	     -1.55815376	      1.21250839	      0.02116226	      3.15280353	     -5.25673473	     -7.49999987	      1.66923721	     -4.47374103	      0.07478360	      1.43926214	      0.02511986	     -0.10129461	     -6.55223293	     -7.49999987	      8.24061885	     -2.38951166	      4.27205606	     85.13780396	    -45.83828762	     -8.72787154	     51.32271231	     78.43061319	     99.83359623	    -29.31761847	     32.12180190	     35.80846529	     70.99472255
      7.28333330	     -4.25778755	      0.35802434	      0.93514935	      0.40390616	      0.93343345	      0.00473492	      1.06139896	     -6.95487640	     -1.58166578	      1.23354308	      0.02152939	      2.92208626	     -5.40024617	     -7.49999987	      1.63743618	     -4.45980108	      0.03766688	      1.48035544	      0.02583708	     -0.05683301	     -6.48401324	     -7.49999987	      8.06380874	     -2.36013659	      3.85039871	     83.19212201	    -44.51470739	    -12.46728760	     51.46975699	     83.01829597	     98.85481437	    -29.85760648	     30.96804380	     36.04670469	     72.02996060
      7.30000000	     -4.14722019	      0.38219751	      0.94657926	      0.40409488	      0.93373793	      0.00420647	      0.94840784	     -6.97925478	     -1.57201238	      1.24747771	      0.02177259	      2.74948927	     -5.51717694	     -7.49999987	      1.52316961	     -4.44821300	      0.00985951	      1.52177931	      0.02656006	     -0.04764016	     -6.45728019	     -7.49999987	      7.72542561	     -2.48024646	      4.14822389	     81.07444980	    -44.96307439	    -14.10837547	     51.03950227	     81.06863443	     97.98542424	    -29.98663946	     31.86458857	     36.10333441	     70.44487580
      7.31666670	     -4.02748586	      0.37715852	      1.02616737	      0.40377553	      0.93369345	      0.00469349	      0.79491624	     -6.96168981	     -1.67893021	      1.21635738	      0.02122944	      2.71149247	     -5.43092802	     -7.49999987	      1.42696915	     -4.46566514	      0.10207516	      1.59612799	      0.02785769	     -0.13107040	     -6.61987527	     -7.49999987	      7.38745447	     -2.54863238	      4.32243123	     78.46656928	    -45.83350838	    -15.08880411	     50.07224747	     82.38403488	     96.71861399	    -29.89411187	     31.18848598	     35.87469293	     70.72438747
      7.33333330	     -3.94246447	      0.35371875	      1.13587332	      0.40381896	      0.93392259	      0.00401504	      0.65162702	     -6.91060298	     -1.75455464	      1.18461605	      0.02067545	      2.67450445	     -5.44766013	     -7.49999987	      1.36939236	     -4.50713431	      0.17079102	      1.65798545	      0.02893731	     -0.16003220	     -6.62336464	     -7.49999987	      7.13252306	     -2.85849955	      5.22469911	     74.16519021	    -48.20365531	    -15.77837144	     50.37956229	     78.69787892	     94.99988928	    -29.26384137	     31.68703623	     36.39598623	     69.19374203
      7.35000000	     -3.93728152	      0.33565589	      1.19558736	      0.40719536	      0.93332800	     -0.00050263	      0.55681114	     -6.94343201	     -1.89073471	      1.16721714	      0.02037178	      2.59736391	     -5.45308429	     -7.49999987	      1.35691817	     -4.47993352	      0.17062002	      1.70357939	      0.02973307	     -0.16829300	     -6.64350181	     -7.49999987	      7.13776611	     -2.90969028	      5.95184699	     70.04606298	    -50.65537118	    -15.61877399	     50.52813713	     78.72569416	     91.53308619	    -29.66538225	     30.92140489	     39.89322463	     69.22058820
      7.36666670	     -3.86431070	      0.22862548	      1.24814418	      0.40732904	      0.93097234	     -0.00095238	      0.39642579	     -6.88970820	     -1.93690044	      1.18736579	      0.02072344	      2.56048833	     -5.63765338	     -7.49999987	      1.25965389	     -4.53752529	      0.19460872	      1.74053500	      0.03037807	     -0.03505485	     -6.76991232	     -7.49999987	      7.03651674	     -3.07711491	      7.84351398	     61.35931322	    -53.82718615	    -20.37192990	     55.33236255	     73.79683613	     87.37624380	    -27.73465105	     24.96858389	     42.05833549	     69.52810614
      7.38333330	     -3.83722477	      0.12164127	      1.33320721	      0.40709671	      0.93101598	     -0.00055260	      0.27789324	     -6.82766325	     -2.05462700	      1.19758049	      0.02090172	      2.62388748	     -5.72515327	     -7.49999987	      1.22159848	     -4.60254513	      0.32659293	      1.77467297	      0.03097389	      0.06210606	     -6.90371769	     -7.49999987	      7.06995553	     -3.16823490	      8.61949581	     55.20046697	    -54.78609713	    -24.09331760	     57.07577289	     73.08359714	     83.79141544	    -27.35411420	     22.62010466	     43.27428896	     70.91025781
      7.40000000	     -3.78800947	     -0.01316101	      1.45100871	      0.40713499	      0.93141111	     -0.00139546	      0.14234427	     -6.75502968	     -2.22173434	      1.19454646	      0.02084877	      2.57267796	     -6.00450730	     -7.49999987	      1.16848284	     -4.67567083	      0.64701833	      1.76008890	      0.03071935	      0.07254624	     -7.19800916	     -7.49999987	      7.24214471	     -2.97909282	      8.97356373	     51.85245367	    -55.06134790	    -25.41161827	     56.86720915	     71.08857661	     80.68529926	    -27.23760856	     19.91045949	     43.80870969	     69.14930181
      7.41666670	     -3.79335207	     -0.10711684	      1.54853122	      0.40695353	      0.93144312	     -0.00088851	      0.08505561	     -6.69916652	     -2.36126716	      1.16647381	      0.02035881	      2.72719876	     -6.11294962	     -7.49999987	      1.20110566	     -4.73646197	      0.74846808	      1.77708404	      0.03101597	      0.26394168	     -7.08658338	     -7.49999987	      7.13542231	     -3.31242280	     10.34465448	     44.16583956	    -55.98746222	    -30.18670902	     58.27006637	     70.83004139	     79.25771346	    -24.90588818	     17.53019648	     42.72313490	     70.28818861
      7.43333330	     -3.61637487	     -0.23998688	      1.74154832	      0.40694818	      0.93200770	     -0.00179528	     -0.12896222	     -6.60292182	     -2.72520091	      1.19767538	      0.02090338	      2.80142240	     -6.03249984	     -7.49999987	      1.04636013	     -4.85369607	      1.07206580	      1.71323136	      0.02990153	      0.37736605	     -7.11239733	     -7.49999987	      6.73347088	     -3.06463904	      9.73627689	     42.13624776	    -55.44246424	    -29.67610884	     57.89285481	     68.12026103	     76.82663807	    -24.87196574	     15.12974143	     43.60520077	     67.58419275
      7.45000000	     -3.64820431	     -0.30598005	      1.76613907	      0.40680415	      0.92886976	     -0.00131804	     -0.05699265	     -6.55633010	     -2.60550140	      1.29439768	      0.02259150	      2.79298943	     -6.43056115	     -7.49999987	      1.07525883	     -4.93261173	      1.25012624	      1.65656758	      0.02891256	      0.57245292	     -7.05339581	     -7.49999987	      6.47223744	     -3.36416411	     10.49591869	     36.37854103	    -55.92287135	    -32.79470951	     59.15108860	     68.15932550	     76.26579568	    -23.15777910	     15.12354545	     42.60027070	     69.67165473
      7.46666670	     -3.62866296	     -0.38147622	      1.76424125	      0.40692497	      0.92930297	     -0.00200621	     -0.07105494	     -6.49455008	     -2.56799024	      1.31819445	      0.02300683	      2.79141515	     -6.58491549	     -7.49999987	      1.01006808	     -5.02808168	      1.43738652	      1.54122102	      0.02689938	      0.65164998	     -7.10517003	     -7.49999987	      6.15106864	     -3.15220305	      9.93128079	     34.93520174	    -54.78697087	    -32.48090390	     59.20518766	     67.06937848	     74.88909466	    -23.42168925	     14.65115278	     43.38277948	     68.85897891
      7.48333330	     -3.58800534	     -0.45576581	      1.77845060	      0.40665540	      0.92949161	     -0.00154323	     -0.13309329	     -6.43512774	     -2.53125334	      1.30975172	      0.02285948	      2.90483886	     -6.58043037	     -7.49999987	      0.92628479	     -5.13247766	      1.67455607	      1.44715097	      0.02525755	      0.75512734	     -7.11897172	     -7.49999987	      5.92311494	     -2.93638635	      9.58421939	     34.22748395	    -53.23226882	    -33.26077312	     58.67915423	     68.57424972	     73.15130787	    -23.28962111	     13.09946827	     43.39640648	     70.01026022
      7.50000000	     -3.54684785	     -0.49006159	      1.86528868	      0.40675089	      0.93006089	     -0.00220548	     -0.22847578	     -6.39426062	     -2.53434779	      1.26512742	      0.02208064	      3.00400710	     -6.64513216	     -7.49999987	      0.86912542	     -5.17984373	      1.88203133	      1.35334032	      0.02362024	      0.78100529	     -7.15087958	     -7.49999987	      5.86305536	     -2.81873881	      9.33122569	     32.74025797	    -51.34043179	    -34.83087218	     58.26468896	     67.33255589	     71.43190815	    -23.68166601	     13.70705721	     42.67180158	     67.54404753
